<svg xmlns="http://www.w3.org/2000/svg" viewBox="0 0 122.43 122.88"><path d="M22.63 12.6h93.3c6.1 0 5.77 2.47 5.24 8.77L117.7 65.6c-.59 7.05-.09 5.34-7.56 6.41l-68.62 8.73 3.63 10.53h73.91c1 3.74 2.36 9.83 3.36 14h-12.28l-1.18-4.26H49.9c-13.55-.23-12.19 3.44-15.44-8.27L11.18 8.11H0V0h19.61c.91 3.41 2.17 9.15 3.02 12.6zm31.06 91.32c5.23 0 9.48 4.25 9.48 9.48 0 5.24-4.24 9.48-9.48 9.48s-9.48-4.24-9.48-9.48c0-5.23 4.24-9.48 9.48-9.48zm39.1 0c5.23 0 9.48 4.25 9.48 9.48 0 5.24-4.25 9.48-9.48 9.48-5.24 0-9.48-4.24-9.48-9.48 0-5.23 4.24-9.48 9.48-9.48zM30.8 43.07h15.1l-5.48-22.91c-5.4 0-10.72-.01-15.93-.01l1.84 6.86.06-.01 4.41 16.07zm17.51-22.9l5.48 22.9h14.54l-5.5-22.88-14.52-.02zm22.43.03l5.5 22.87h13.91l-5.48-22.85-13.93-.02zm21.84.03l5.48 22.85h13.92l1.54-18.36c.43-5.12 1.33-4.47-3.63-4.47-5.66-.01-11.45-.02-17.31-.02zm18.91 28.66H99.45l3.97 16.56.98-.13c6.07-.87 5.67.52 6.15-5.21l.94-11.22zM95.77 66.5l-4.22-17.61h-13.9l4.67 19.44 13.45-1.83zm-21.11 2.87l-4.93-20.49H55.18l5.37 22.41 14.11-1.92zM52.9 72.34l-5.61-23.45H32.4l6.96 25.3 13.54-1.85z" fill-rule="evenodd" clip-rule="evenodd"/></svg>