<svg data-name="Layer 1" xmlns="http://www.w3.org/2000/svg" viewBox="0 0 122.88 122.31"><path d="M27.75 0h67.38a27.83 27.83 0 0127.75 27.75v66.82a27.83 27.83 0 01-27.75 27.74H27.75A27.83 27.83 0 010 94.57V27.75A27.83 27.83 0 0127.75 0z" fill-rule="evenodd" fill="#1ca1f1"/><path d="M102.55 35.66a33.3 33.3 0 01-9.68 2.65 17 17 0 007.42-9.31 34.05 34.05 0 01-10.71 4.1 16.87 16.87 0 00-29.17 11.52 17.45 17.45 0 00.43 3.84 47.86 47.86 0 01-34.75-17.63 16.83 16.83 0 00-2.29 8.48 16.84 16.84 0 007.5 14 17 17 0 01-7.64-2.11v.22A16.86 16.86 0 0037.19 68a17.19 17.19 0 01-4.45.6 17.58 17.58 0 01-3.18-.31A16.9 16.9 0 0045.31 80a34 34 0 01-25 7 47.69 47.69 0 0025.86 7.58c31 0 48-25.7 48-48 0-.74 0-1.46-.05-2.19a33.82 33.82 0 008.41-8.71z" fill="#fff" fill-rule="evenodd"/></svg>